<?xml version="1.0" encoding="UTF-8" standalone="no"?>
<svg
   xmlns:dc="http://purl.org/dc/elements/1.1/"
   xmlns:cc="http://creativecommons.org/ns#"
   xmlns:rdf="http://www.w3.org/1999/02/22-rdf-syntax-ns#"
   xmlns:svg="http://www.w3.org/2000/svg"
   xmlns="http://www.w3.org/2000/svg"
   xmlns:sodipodi="http://sodipodi.sourceforge.net/DTD/sodipodi-0.dtd"
   xmlns:inkscape="http://www.inkscape.org/namespaces/inkscape"
   width="400pt"
   height="110pt"
   viewBox="0 0 400 110"
   version="1.1"
   id="svg4028"
   inkscape:version="0.91 r13725"
   sodipodi:docname="LiteCart2b.Logotype.Vector.Inscape-TiM.svg">
  <metadata
     id="metadata4068">
    <rdf:RDF>
      <cc:Work
         rdf:about="">
        <dc:format>image/svg+xml</dc:format>
        <dc:type
           rdf:resource="http://purl.org/dc/dcmitype/StillImage" />
        <dc:title></dc:title>
      </cc:Work>
    </rdf:RDF>
  </metadata>
  <defs
     id="defs4066" />
  <sodipodi:namedview
     pagecolor="#ffffff"
     bordercolor="#666666"
     borderopacity="1"
     objecttolerance="10"
     gridtolerance="10"
     guidetolerance="10"
     inkscape:pageopacity="0"
     inkscape:pageshadow="2"
     inkscape:window-width="1920"
     inkscape:window-height="1137"
     id="namedview4064"
     showgrid="false"
     inkscape:zoom="1.7875659"
     inkscape:cx="293.76626"
     inkscape:cy="-21.155681"
     inkscape:window-x="-8"
     inkscape:window-y="-8"
     inkscape:window-maximized="1"
     inkscape:current-layer="svg4028" />
  <path
     d="m 63.035785,21.692131 c 3.6,-0.28 7.35,0.81 10.43,2.66 3.53,2.91 1.99,7.88 0.65,11.5 -0.89,3.06 -4.21,5.02 -7.32,4.3 -4.01,-0.53 -9.45,-2.06 -9.71,-6.94 0.36,-4.25 1.25,-10.02 5.95,-11.52 z"
     id="path4032"
     style="fill:#3ba5c6;fill-opacity:1"
     inkscape:connector-curvature="0" />
  <path
     d="m 154.06,32.05 c 2.71,0 5.43,0 8.14,0 0.01,2.66 0.03,5.31 0.04,7.97 -2.68,-0.02 -5.37,-0.03 -8.05,-0.05 -0.04,-2.64 -0.06,-5.28 -0.13,-7.92 z"
     id="path4034"
     style="fill:#9b9b9b;fill-opacity:1"
     inkscape:connector-curvature="0" />
  <path
     d="m 32.03254,34.381869 c 3.71,-2.37 7.75,0.44 10.7,2.69 2.68,1.75 4.05,5.52 2.37,8.4 -1.91,3.55 -4.6,8.23 -9.36,7.51 -3.39,-1.13 -6.85,-3.12 -8.81,-6.19 -1.5,-4.78 1.58,-9.48 5.1,-12.41 z"
     id="path4036"
     style="fill:#d13cab;fill-opacity:1"
     inkscape:connector-curvature="0" />
  <path
     d=" M 177.71 36.73 C 180.38 36.75 183.05 36.76 185.73 36.79 C 185.71 39.49 185.71 42.19 185.73 44.89 C 189.68 44.88 193.62 44.89 197.57 44.97 C 197.57 47.52 197.58 50.06 197.59 52.61 C 193.61 52.57 189.62 52.56 185.64 52.54 C 185.84 59.04 185.46 65.54 185.77 72.04 C 185.57 73.95 187.13 75.70 189.02 75.85 C 191.85 76.12 194.69 75.95 197.53 76.00 C 197.54 78.75 197.55 81.51 197.57 84.26 C 193.55 84.15 189.36 84.74 185.49 83.39 C 181.40 81.61 177.89 77.65 177.82 73.02 C 177.55 66.22 177.78 59.42 177.80 52.62 C 176.50 52.59 175.21 52.59 173.91 52.60 C 173.86 50.06 173.82 47.53 173.77 44.99 C 175.10 44.92 176.43 44.84 177.77 44.76 C 177.75 42.08 177.72 39.41 177.71 36.73 Z"
     id="path4038"
     style="fill:#9b9b9b;fill-opacity:1"
     fill="#979b9f" />
  <path
     d="m 353.99,36.78 c 2.7,-0.02 5.41,-0.03 8.13,-0.04 0,2.69 -0.01,5.38 -0.02,8.06 4.02,0.1 8.04,0.1 12.07,0.1 0.01,2.57 0.02,5.14 0.05,7.71 -4.05,-0.03 -8.09,-0.04 -12.13,-0.09 0.32,6.97 -0.44,14 0.34,20.93 2.16,4.25 7.96,1.94 11.75,2.55 0,2.75 0,5.49 0.02,8.24 -4.17,-0.13 -8.56,0.6 -12.54,-0.97 -4.38,-1.93 -7.63,-6.42 -7.58,-11.28 -0.14,-6.48 0.01,-12.96 0.04,-19.44 -1.35,0.01 -2.7,0.03 -4.04,0.04 -0.03,-2.57 -0.02,-5.13 -0.05,-7.7 1.01,0 3.02,0 4.03,0 -0.01,-2.71 -0.04,-5.41 -0.07,-8.11 z"
     id="path4040"
     style="fill:#9b9b9b;fill-opacity:1"
     inkscape:connector-curvature="0" />
  <path
     d=" M 122.78 44.75 C 125.59 44.75 128.41 44.75 131.23 44.76 C 131.22 54.49 131.34 64.22 131.16 73.95 C 135.50 77.73 141.73 75.34 146.93 76.00 C 146.92 78.74 146.90 81.48 146.90 84.22 C 140.46 83.78 132.96 85.89 127.50 81.44 C 124.29 78.99 122.70 74.98 122.79 71.00 C 122.71 62.25 122.83 53.50 122.78 44.75 Z"
     id="path4042"
     style="fill:#9b9b9b;fill-opacity:1"
     fill="#979b9f" />
  <path
     d=" M 154.06 44.66 C 156.78 44.65 159.50 44.65 162.22 44.65 C 162.33 53.79 162.07 62.93 162.29 72.06 C 162.04 74.49 164.64 75.41 166.24 76.57 C 166.33 79.27 166.36 81.96 166.38 84.66 C 163.50 83.77 160.30 83.16 158.11 80.92 C 155.36 78.43 154.14 74.69 154.17 71.06 C 154.05 62.27 154.31 53.46 154.06 44.66 Z"
     id="path4044"
     style="fill:#9b9b9b;fill-opacity:1"
     fill="#979b9f" />
  <path
     style="fill:#9b9b9b;fill-opacity:1"
     d="M 274.96875 55.875 C 272.47344 55.895313 269.98125 56.01875 267.5 56.3125 C 261.3 57.55 256.28125 63.58125 256.46875 69.96875 C 256.44375 76.64375 256.48125 83.325 256.46875 90 C 255.96875 98.025 263.34375 105.15625 271.21875 105.21875 C 279.39375 105.48125 287.5625 105.1375 295.75 105.3125 C 295.7 101.8625 295.675 98.4375 295.625 95 C 287.0875 94.85 278.54375 95.3625 270.03125 94.75 C 265.75625 93.725 266.56875 88.60625 266.28125 85.28125 C 276.08125 85.30625 285.8875 85.25625 295.6875 85.34375 C 295.65 79.84375 296 74.33125 295.5625 68.84375 C 295.1 62.23125 289.11875 56.31875 282.46875 56.09375 C 279.98125 55.93125 277.46406 55.854687 274.96875 55.875 z M 275.6875 65.46875 C 277.96719 65.459375 280.25625 65.65625 282.5 65.9375 C 286.5125 66.9625 285.2 72.0625 285.875 75.125 C 279.3125 75.275 272.73125 75.25 266.15625 75.125 C 266.74375 72.125 265.85 68.05 268.9375 66.1875 C 271.15 65.68125 273.40781 65.478125 275.6875 65.46875 z "
     transform="scale(0.8,0.8)"
     id="path4046" />
  <path
     d="m 244.3,55.95 c -0.11,-5.11 3.92,-9.74 8.79,-10.89 4.62,-0.52 9.31,-0.52 13.93,0.04 4.13873,0.953878 6.99724,4.331461 8.29629,8.222071 0.3488,1.044652 0.47329,2.461942 -0.52701,3.319813 -2.54,0.03 -3.83928,-0.101884 -6.36928,-0.101884 -1.27,-1.48 -2.09,-3.99 -4.4,-3.94 -3.23,-0.2 -6.6,-0.49 -9.75,0.38 -2.93,1.98 -1.63,6 -1.95,8.96 0.4,4.2 -0.92,8.86 0.91,12.77 3.89,2.59 9.3,1.2 13.65,0.4 0.27,-1.04 0.55,-2.07 0.83,-3.11 2.72,0 3.10044,0.09188 5.84044,0.121884 1.8272,0.44833 1.90484,2.461308 1.68475,3.33432 -0.8388,3.327037 -2.52831,5.564061 -5.66519,7.203796 -4.16,2.16 -9.08,1.67 -13.6,1.53 -5.87,-0.21 -11.44,-5.13 -11.61,-11.14 -0.24,-5.69 -0.17,-11.4 -0.06,-17.1 z"
     id="path4048"
     style="fill:#9b9b9b;fill-opacity:1"
     inkscape:connector-curvature="0"
     sodipodi:nodetypes="cccscccccccccscccc" />
  <path
     style="fill:#9b9b9b;fill-opacity:1"
     d="m 366.375,55.90625 c -4.10938,0.02031 -0.99747,-0.06486 -5.10997,-0.0461 0.0125,3.2 0.006,6.514855 -0.0312,9.702355 8.6125,0.3375 10.02247,-0.275 18.60997,0.25 4.2375,0.775 3.68125,6.11875 4.09375,9.34375 -6.025,0.1875 -12.0875,-0.3875 -18.0625,0.625 -6.6625,1.0875 -12.19375,7.4125 -11.78125,14.25 -0.3,7.9 6.75,15 14.5625,15.1875 8.2375,0.2875 16.48125,-0.05 24.71875,0.0625 -0.15,-11.775 0.10625,-23.56875 -0.0937,-35.34375 0.1375,-7.5875 -7,-14.3875 -14.5625,-13.9375 -4.1125,-0.1 -8.23437,-0.114063 -12.34375,-0.09375 z m 8.78125,29.28125 c 2.81563,0.02187 5.63125,0.15625 8.4375,0.09375 0.0125,3.2375 0.0125,6.48125 0.0625,9.71875 -5.3375,-0.1375 -10.70625,0.3375 -16.03125,-0.25 -4.2625,-0.775 -4.6375,-7.2375 -0.875,-9 2.76875,-0.4875 5.59062,-0.584375 8.40625,-0.5625 z"
     transform="scale(0.8,0.8)"
     id="path4050"
     inkscape:connector-curvature="0"
     sodipodi:nodetypes="sccccccccccssccccs" />
  <path
     d="m 326.5,47.48 c 4.18,-3.84 10.3,-2.58 15.47,-2.69 3.66107,-0.104967 1.85776,7.417531 1.85776,7.417531 0.0375,0.541531 -4.47327,0.859161 -11.27776,0.232469 -1.13,1.65 -2.42,3.39 -2.19,5.52 -0.02,8.77 0.04,17.54 0.04,26.31 -2.74,-0.04 -5.46,-0.06 -8.19,-0.09 0.08,-9.07 -0.05,-18.14 0.02,-27.21 -0.06,-3.6 1.41,-7.22 4.27,-9.49 z"
     id="path4052"
     style="fill:#9b9b9b;fill-opacity:1"
     inkscape:connector-curvature="0"
     sodipodi:nodetypes="ccccccccc" />
  <path
     d="m 82.030886,47.651528 c 3.32,-0.87 7.08,-1.3 10.36,-0.12 3.74,1.68 3.77,6.24 3.78,9.73 0.47,3.73 -2.75,7.3 -6.49,7.29 -2.97,0.15 -6.41,0.67 -8.88,-1.4 -2.71,-2.12 -2.37,-5.91 -2.5,-8.98 -0.25,-2.68 1.2,-5.49 3.73,-6.52 z"
     id="path4054"
     style="fill:#97c000;fill-opacity:1"
     inkscape:connector-curvature="0" />
  <path
     d="m 36.93146,67.857274 c 2.51,-1.26 5.78,-0.73 7.61,1.46 2.21,2.51 5.16,5.37 4.58,9.04 -0.66,3.32 -3.75,5.33 -6.31,7.19 -2.55,1.93 -6.48,1.63 -8.57,-0.86 -2.52,-2.73 -5.89,-6.19 -4.37,-10.26 1.46,-2.93 4.31,-4.94 7.06,-6.57 z"
     id="path4060"
     style="fill:#ed3c32;fill-opacity:1"
     inkscape:connector-curvature="0" />
  <path
     d="m 69.967578,74.460477 c 2.49,-0.58 5.41,0.32 6.59,2.72 1.32,2.74 2.82,5.67 2.69,8.79 -0.57,3.97 -4.73,5.52 -8.08,6.53 -2.91,1.02 -6.8,0.4 -8.23,-2.65 -1.28,-2.7 -2.73,-5.6 -2.57,-8.65 0.81,-4.47 5.86,-5.71 9.6,-6.74 z"
     id="path4062"
     style="fill:#fbb829;fill-opacity:1"
     inkscape:connector-curvature="0" />
</svg>
